File Name

Shelter 2010 BRRip 816p H264.mp4

File Size
Format : MPEG-4
Format profile : Base Media
Codec ID : isom
File size : 3.69 GiB
Duration : 1h 52mn
Overall bit rate : 4 690 Kbps
Video
ID : 1
Format : AVC
Format/Info : Advanced Video Codec
Format profile : High@L4.1
Format settings, CABAC : Yes
Format settings, ReFrames : 3 frames
Codec ID : avc1
Codec ID/Info : Advanced Video Coding
Duration : 1h 52mn
Bit rate mode : Variable
Bit rate : 4 049 Kbps
Maximum bit rate : 22.1 Mbps
Width : 1 920 pixels
Height : 816 pixels
Display aspect ratio : 2.35:1
Frame rate mode : Constant
Frame rate : 23.976 fps
Resolution : 24 bits
Colorimetry : 4:2:0
Scan type : Progressive
Bits/(Pixel*Frame) : 0.108
Stream size : 3.18 GiB (86%)

Audio #1
ID : 2
Format : AAC
Format/Info : Advanced Audio Codec
Format version : Version 4
Format profile : LC
Format settings, SBR : No
Codec ID : 40
Duration : 1h 52mn
Bit rate mode : Variable
Bit rate : 192 Kbps
Maximum bit rate : 203 Kbps
Channel(s) : 2 channels
Channel positions : L R
Sampling rate : 48.0 KHz
Resolution : 16 bits
Stream size : 154 MiB (4%)

Audio #2
ID : 3
Format : AAC
Format/Info : Advanced Audio Codec
Format version : Version 4
Format profile : LC
Format settings, SBR : No
Codec ID : 40
Duration : 1h 52mn
Bit rate mode : Variable
Bit rate : 448 Kbps
Maximum bit rate : 471 Kbps
Channel(s) : 6 channels
Channel positions : Front: L C R, Rear: L R, LFE
Sampling rate : 48.0 KHz
Resolution : 16 bits
Stream size : 360 MiB (10%)

English SRT : External

Language : English

 
http://www.imdb.com/title/tt1179069/

Release Date: 27 March 2010 (Japan) 

Genre: Horror | Mystery | Thriller 

Plot: A female forensic psychiatrist discovers that all of one of her patient's multiple personalities are murder victims. She will have to find out what's happening before her time is finished. 

Cast: 
Julianne Moore ... Dr. Cara Jessup
Jonathan Rhys Meyers ... Adam
Jeffrey DeMunn ... Dr. Harding
Frances Conroy ... Mrs. Bernburg
Nathan Corddry ... Stephen Harding
Brooklynn Proulx ... Sammy
Brian Anthony Wilson ... Virgil (as Brian A. Wilson)
Steven Rishard ... Detective Danton
Charles Techman ... Monty Hughes
John Peakes ... Dr. Charles Foster
Michael Graves ... Holler Man
Chaz Moneypenny ... Adam Sabre
Charles David Richards ... Holiday Inn Bar Keep (as Charles D. Richards)
Rick Applegate ... Warden Collins
Loretta Higgins ... Lady Doctor




Screenshots:

http*://lookpic*.*com/d2/i2/119/ZuIaj5Hs.jpeg

http*://lookpic*.*com/d2/i2/3783/md19ko0t.png

http*://lookpic*.*com/d2/i2/1451/JhqVEEX.png

http*://lookpic*.*com/d2/i2/2479/WF1If3RN.png

http*://lookpic*.*com/d2/i2/3243/D8d38HdC.png